<!DOCTYPE svg PUBLIC "-//W3C//DTD SVG 20010904//EN" "http://www.w3.org/TR/2001/REC-SVG-20010904/DTD/svg10.dtd">
<svg version="1.0" xmlns="http://www.w3.org/2000/svg" width="400px" height="160px" viewBox="0 0 4000 1600" preserveAspectRatio="xMidYMid meet">
<g id="layer1" fill="#fefffe" stroke="none">
 <path d="M2810 820 c0 -458 1 -491 18 -497 45 -16 149 -55 272 -103 74 -29 155 -55 180 -57 42 -4 53 1 155 65 l110 70 3 115 3 115 -32 11 c-18 6 -36 11 -40 11 -5 0 -9 -38 -9 -85 l0 -85 -77 -51 -78 -51 -3 516 -2 516 -250 0 -250 0 0 -490z m120 4 c0 -47 -3 -55 -16 -50 -9 3 -18 6 -20 6 -2 0 -4 23 -4 50 0 43 3 50 20 50 18 0 20 -7 20 -56z m130 -3 c0 -57 -1 -58 -25 -53 -23 4 -25 9 -25 58 0 51 1 54 25 54 24 0 25 -3 25 -59z m150 -6 l0 -65 -31 4 c-31 3 -31 3 -33 64 l-1 62 33 0 32 0 0 -65z m-280 -171 c0 -47 -3 -55 -16 -50 -9 3 -18 6 -20 6 -2 0 -4 23 -4 50 0 43 3 50 20 50 18 0 20 -7 20 -56z m128 -18 c3 -55 2 -57 -20 -54 -21 3 -23 9 -26 61 -3 55 -2 57 20 54 20 -4 23 -10 26 -61z m150 -25 c3 -62 2 -63 -20 -57 -13 3 -27 6 -33 6 -6 0 -10 27 -10 60 l0 61 30 -3 c30 -3 30 -4 33 -67z m-278 -137 c0 -47 -3 -55 -16 -50 -9 3 -18 6 -20 6 -2 0 -4 23 -4 50 0 43 3 50 20 50 18 0 20 -7 20 -56z m128 -33 c3 -55 1 -63 -13 -57 -9 3 -21 6 -26 6 -5 0 -9 26 -9 59 0 54 2 58 23 57 20 -1 22 -7 25 -65z m136 23 c12 -5 16 -21 16 -65 0 -61 -1 -63 -37 -53 -21 6 -23 13 -23 65 0 61 6 68 44 53z"/>
 <path d="M3400 952 l0 -359 180 -67 180 -67 100 52 100 52 0 374 0 373 -40 0 -40 0 0 -345 0 -345 -50 -25 c-27 -14 -52 -25 -55 -25 -3 0 -5 167 -5 370 l0 370 -185 0 -185 0 0 -358z m90 3 c0 -24 -5 -35 -15 -35 -10 0 -15 11 -15 35 0 24 5 35 15 35 10 0 15 -11 15 -35z m100 -5 c0 -33 -3 -40 -20 -40 -17 0 -20 7 -20 40 0 33 3 40 20 40 17 0 20 -7 20 -40z m110 -5 c0 -41 -2 -45 -25 -45 -23 0 -25 4 -25 45 0 41 2 45 25 45 23 0 25 -4 25 -45z m-210 -125 c0 -31 -3 -38 -15 -34 -9 4 -15 19 -15 40 0 24 5 34 15 34 11 0 15 -11 15 -40z m100 -10 c0 -33 -3 -40 -20 -40 -17 0 -20 7 -20 40 0 33 3 40 20 40 17 0 20 -7 20 -40z m94 24 c11 -4 16 -19 16 -49 0 -38 -3 -42 -22 -41 -20 1 -23 7 -26 49 -3 47 2 53 32 41z m-196 -147 c3 -30 0 -36 -12 -31 -10 4 -16 19 -16 41 0 47 24 38 28 -10z m100 -25 c3 -38 1 -43 -15 -40 -13 2 -19 14 -21 46 -3 38 -1 43 15 40 13 -2 19 -14 21 -46z m112 -29 c0 -40 -2 -44 -22 -41 -20 3 -23 10 -26 49 -3 45 -2 46 23 42 22 -5 25 -10 25 -50z"/>
 <path d="M887 1243 c-4 -3 -7 -15 -7 -25 0 -14 5 -18 18 -14 21 7 35 -2 50 -30 9 -17 2 -45 -37 -152 l-49 -132 28 0 c27 0 30 5 60 96 l33 97 32 -94 c29 -86 34 -94 60 -97 23 -3 27 -1 21 15 -4 10 -28 74 -53 143 -49 136 -70 181 -87 192 -14 10 -60 10 -69 1z"/>
 <path d="M1146 1229 c-33 -26 -35 -59 -3 -59 12 0 28 9 35 20 26 43 112 11 112 -42 0 -17 -3 -19 -12 -10 -7 7 -32 12 -56 12 -77 0 -125 -74 -107 -167 10 -55 54 -93 107 -93 24 0 49 5 56 12 9 9 12 9 12 0 0 -7 11 -12 25 -12 l25 0 0 135 c0 193 -17 225 -118 225 -35 0 -57 -6 -76 -21z m110 -127 c38 -25 45 -105 13 -146 -44 -55 -104 -18 -104 64 0 69 47 112 91 82z"/>
 <path d="M2052 1230 c-30 -28 -29 -60 1 -60 12 0 28 9 35 20 8 13 23 20 41 20 28 0 61 -22 61 -40 0 -5 3 -16 7 -25 5 -15 3 -16 -15 -6 -38 20 -97 14 -125 -15 -76 -76 -31 -234 66 -234 21 0 47 5 58 10 13 7 19 7 19 0 0 -5 12 -10 26 -10 l26 0 -4 148 c-3 81 -8 155 -13 165 -20 47 -142 65 -183 27z m128 -147 c17 -22 21 -37 17 -71 -9 -78 -65 -108 -106 -56 -42 53 -13 154 44 154 14 0 33 -11 45 -27z"/>
 <path d="M570 975 l0 -175 100 0 c96 0 102 1 125 26 30 33 34 91 7 119 -16 18 -16 20 10 46 32 31 36 65 13 109 -22 43 -43 50 -154 50 l-101 0 0 -175z m180 122 c30 -15 39 -67 16 -86 -9 -8 -45 -16 -81 -19 l-65 -5 0 62 0 61 53 0 c28 0 63 -6 77 -13z m7 -169 c22 -23 9 -66 -23 -78 -14 -6 -45 -10 -70 -10 l-44 0 0 56 0 56 60 -4 c37 -3 67 -11 77 -20z"/>
 <path d="M1400 1020 c0 -123 1 -130 20 -130 11 0 20 5 20 10 0 7 6 7 19 0 27 -14 94 -13 115 3 23 17 35 75 36 170 0 76 0 77 -25 77 -25 0 -25 -1 -25 -82 0 -121 -28 -161 -85 -124 -24 16 -25 22 -25 111 0 95 0 95 -25 95 l-25 0 0 -130z"/>
 <path d="M1660 1020 l0 -130 25 0 25 0 0 130 0 130 -25 0 -25 0 0 -130z"/>
 <path d="M1770 1020 c0 -123 1 -130 20 -130 12 0 20 7 20 17 0 15 1 15 18 0 12 -11 36 -17 64 -17 71 0 82 19 86 151 l4 109 -26 0 c-26 0 -26 0 -26 -88 0 -63 -4 -94 -16 -110 -19 -27 -48 -28 -74 -2 -17 17 -20 33 -20 110 0 89 0 90 -25 90 l-25 0 0 -130z"/>
 <path d="M2328 1121 c-31 -28 -33 -33 -33 -101 0 -68 2 -73 33 -101 27 -24 41 -29 83 -29 43 0 55 5 80 29 16 16 29 38 29 48 0 10 3 28 6 41 6 22 5 22 -90 22 -106 0 -113 5 -75 54 27 34 70 35 97 1 24 -30 62 -34 62 -6 0 11 -14 31 -31 45 -45 38 -117 37 -161 -3z m142 -143 c0 -41 -74 -64 -102 -30 -34 39 -32 42 36 42 44 0 66 -4 66 -12z"/>
 <path d="M2570 1021 l0 -129 70 -1 c39 0 70 4 70 8 0 25 -13 38 -34 34 -40 -8 -56 28 -56 129 0 87 0 88 -25 88 l-25 0 0 -129z"/>
 <path d="M1660 825 c0 -20 5 -25 25 -25 20 0 25 5 25 25 0 20 -5 25 -25 25 -20 0 -25 -5 -25 -25z"/>
 <path d="M1423 640 c-35 -21 -53 -48 -53 -79 0 -34 41 -26 65 11 33 52 120 60 151 13 27 -42 9 -57 -108 -89 -92 -26 -125 -93 -75 -152 20 -23 34 -28 86 -32 73 -5 116 10 136 49 21 39 19 49 -9 49 -14 0 -30 -10 -39 -24 -32 -48 -146 -36 -147 16 0 18 36 37 100 53 118 29 155 102 86 171 -32 32 -39 34 -97 34 -46 0 -73 -6 -96 -20z"/>
 <path d="M1720 640 c-18 -18 -20 -33 -20 -130 l0 -110 25 0 c25 0 25 0 25 100 0 91 2 100 21 111 29 15 66 -2 79 -37 6 -14 10 -59 10 -100 0 -72 1 -74 25 -74 l25 0 0 130 0 130 -25 0 c-14 0 -25 -5 -25 -10 0 -7 -6 -7 -19 0 -33 17 -99 12 -121 -10z"/>
 <path d="M1970 530 c0 -123 1 -130 20 -130 11 0 20 5 20 10 0 7 6 7 19 0 27 -14 94 -13 115 3 23 17 35 75 36 170 0 76 0 77 -25 77 -25 0 -25 -1 -25 -82 0 -121 -28 -161 -85 -124 -24 16 -25 22 -25 111 0 95 0 95 -25 95 l-25 0 0 -130z"/>
 <path d="M2270 647 c-35 -27 -50 -62 -50 -115 0 -58 19 -106 49 -122 27 -14 94 -13 109 2 9 9 12 -1 12 -45 0 -54 1 -57 25 -57 l25 0 0 174 0 173 -77 1 c-47 1 -84 -4 -93 -11z m106 -52 c18 -28 21 -94 5 -124 -22 -41 -85 -38 -102 6 -35 93 47 194 97 118z"/>
 <path d="M2527 639 c-54 -42 -58 -155 -7 -209 24 -26 35 -30 79 -30 67 0 110 35 118 98 l6 42 -92 0 c-84 0 -91 1 -91 20 0 28 35 60 65 60 14 0 34 -11 47 -25 19 -21 68 -36 68 -20 0 17 -33 66 -49 75 -34 18 -116 12 -144 -11z m132 -161 c-23 -44 -66 -51 -99 -18 -33 33 -24 40 45 40 65 0 66 0 54 -22z"/>
 </g>

</svg>